<?xml version="1.0" standalone="no"?>
<!DOCTYPE svg PUBLIC "-//W3C//DTD SVG 20010904//EN"
 "http://www.w3.org/TR/2001/REC-SVG-20010904/DTD/svg10.dtd">
<svg version="1.0" xmlns="http://www.w3.org/2000/svg"
 width="700.000000pt" height="700.000000pt" viewBox="0 0 700.000000 700.000000"
 preserveAspectRatio="xMidYMid meet">
<metadata>
Created by potrace 1.14, written by Peter Selinger 2001-2017
</metadata>
<g transform="translate(0.000000,700.000000) scale(0.100000,-0.100000)"
fill="#000000" stroke="none">
<path d="M0 3500 l0 -3500 3490 0 3490 0 0 3500 0 3500 -3490 0 -3490 0 0
-3500z m3399 2182 c32 -186 51 -316 45 -321 -5 -5 -30 -12 -56 -15 l-47 -7
-171 167 c-93 92 -170 163 -170 158 0 -5 14 -85 30 -179 16 -93 30 -175 30
-182 0 -11 -80 -33 -123 -33 -22 0 -25 12 -78 318 -38 216 -52 319 -45 323 6
4 32 10 57 13 l47 7 172 -167 c159 -155 171 -165 165 -133 -33 178 -61 345
-60 347 5 6 92 20 120 19 l29 -2 55 -313z m781 225 c57 -28 130 -88 130 -107
0 -6 -18 -30 -39 -53 l-39 -41 -40 36 c-39 35 -120 68 -166 68 -111 0 -198
-93 -199 -211 0 -82 34 -138 108 -174 48 -24 63 -27 122 -22 38 3 80 8 94 12
27 7 24 12 55 -96 6 -22 -57 -47 -134 -55 -67 -7 -166 15 -228 51 -54 32 -121
106 -147 163 -32 73 -29 189 7 267 41 92 113 156 206 186 14 5 68 7 120 6 81
-2 104 -7 150 -30z m890 -463 c0 -3 -14 -25 -31 -50 -18 -27 -35 -42 -42 -37
-7 3 -58 37 -114 75 -56 37 -106 68 -111 68 -10 0 -82 -104 -82 -118 0 -5 45
-39 100 -76 l101 -67 -32 -47 c-18 -26 -33 -48 -34 -49 0 -1 -48 29 -105 67
l-103 69 -17 -22 c-38 -51 -63 -99 -53 -106 124 -79 223 -148 223 -154 0 -5
-14 -28 -30 -53 l-31 -44 -180 121 c-121 81 -179 125 -175 134 6 15 195 301
293 442 l64 93 180 -120 c98 -66 179 -123 179 -126z m-2585 -25 c151 -106 275
-196 275 -200 0 -5 -26 -26 -58 -48 l-59 -40 -48 35 c-27 19 -53 34 -58 34 -5
0 -54 -30 -109 -66 -98 -64 -100 -66 -93 -97 21 -100 22 -98 -45 -141 -33 -21
-62 -37 -64 -35 -2 2 -37 156 -78 342 l-75 338 56 39 c31 22 62 37 69 35 7 -3
136 -91 287 -196z m3010 -430 c120 -177 129 -221 65 -322 -57 -90 -182 -129
-270 -84 -34 17 -35 17 -52 -5 -33 -43 -41 -83 -23 -118 9 -17 27 -36 40 -42
l24 -11 -25 -49 c-23 -45 -28 -49 -52 -43 -68 16 -142 112 -142 185 0 44 37
125 80 173 l32 37 -22 30 c-12 16 -24 30 -26 30 -3 0 -45 -27 -93 -60 -48 -33
-90 -60 -93 -60 -7 0 -77 95 -81 109 -3 13 514 371 532 368 7 -1 55 -63 106
-138z m-3792 61 c15 -28 27 -52 27 -55 0 -2 -21 -16 -47 -29 -86 -43 -133
-117 -133 -206 1 -170 207 -265 331 -153 51 47 79 101 86 170 l6 54 61 -3 61
-3 -1 -67 c-1 -124 -94 -261 -214 -317 -46 -22 -69 -26 -140 -26 -106 1 -160
24 -241 105 -57 56 -81 106 -95 196 -13 89 50 241 130 310 38 33 111 74 131
74 6 0 22 -23 38 -50z m1760 -213 c23 -24 112 -121 197 -215 178 -199 190
-220 197 -362 9 -166 -50 -338 -172 -498 l-55 -74 17 -29 17 -29 151 0 150 0
100 71 c109 77 242 162 343 217 51 28 62 31 54 16 -6 -10 -49 -84 -96 -164
l-86 -145 28 -2 c15 -1 162 -7 327 -13 308 -11 601 -25 737 -36 l76 -6 7 89
c3 48 17 179 31 290 13 112 24 205 24 208 0 3 26 5 58 3 l57 -3 -2 -150 -2
-150 19 130 c10 72 19 138 19 148 1 16 9 18 59 15 l57 -3 -2 -145 -2 -145 14
100 c8 55 17 119 20 143 l6 42 59 0 59 0 -4 -147 -4 -148 19 140 c10 77 19
141 19 143 1 1 28 2 60 2 l59 0 -4 -137 -3 -138 19 130 c10 72 19 132 19 135
1 3 26 3 57 0 l56 -5 -1 -135 c-1 -74 -3 -162 -6 -195 -3 -41 0 -31 10 34 8
52 17 96 19 99 3 2 31 1 62 -3 l57 -7 -7 -207 -8 -207 119 -12 c248 -25 296
-34 320 -58 29 -29 29 -71 1 -101 -26 -28 -38 -28 -242 -3 -208 26 -216 26
-216 -2 0 -13 -10 -101 -22 -195 l-22 -173 -58 0 -58 0 -1 93 -1 92 -24 -175
c-13 -96 -23 -181 -24 -187 0 -14 -57 -17 -97 -7 -22 6 -22 8 -18 148 l4 141
-14 -100 c-8 -55 -17 -119 -20 -142 l-6 -43 -44 0 c-77 0 -74 -5 -70 153 l4
142 -19 -135 c-10 -74 -19 -139 -19 -143 -1 -4 -27 -7 -58 -5 l-58 3 2 140 2
140 -19 -130 c-10 -71 -19 -134 -19 -138 -1 -4 -26 -7 -57 -5 l-56 3 0 135 0
135 -17 -130 -16 -130 -59 -3 -59 -3 7 223 c4 123 11 261 15 308 4 47 7 86 7
87 -2 3 -587 34 -779 41 l-188 7 -57 -43 c-50 -37 -292 -251 -292 -257 0 -14
311 -229 388 -269 19 -10 32 -19 30 -21 -1 -2 -81 -9 -175 -16 -95 -7 -173
-15 -173 -19 0 -4 7 -76 15 -160 9 -84 14 -154 13 -156 -3 -2 -106 71 -369
261 l-37 26 -70 -69 c-129 -125 -295 -220 -440 -250 -103 -21 -204 -9 -296 37
-54 26 -82 53 -204 189 -238 266 -246 281 -247 447 0 91 3 105 29 155 15 30
46 77 68 103 l40 48 -128 -5 c-71 -4 -244 -11 -384 -17 -140 -5 -325 -14 -410
-19 -85 -6 -166 -10 -180 -10 l-25 0 7 -82 c3 -46 10 -185 14 -310 l7 -228
-56 0 c-32 0 -57 1 -58 3 0 1 -9 61 -19 132 l-19 130 2 -135 2 -135 -57 -3
c-32 -2 -58 -2 -59 0 0 2 -9 66 -19 143 l-19 140 2 -145 2 -145 -57 -3 c-32
-2 -58 1 -59 5 0 4 -9 69 -19 143 l-19 135 4 -142 c4 -159 7 -153 -71 -153
-35 0 -44 4 -45 18 0 9 -9 76 -19 147 l-19 130 4 -146 c4 -145 4 -147 -18
-153 -40 -10 -97 -7 -97 7 -1 6 -11 91 -24 187 l-24 175 -1 -92 -1 -93 -58 0
-57 0 -23 173 c-12 94 -22 182 -22 195 0 27 9 27 -223 1 -206 -24 -229 -21
-247 27 -13 33 -3 72 24 89 13 9 103 23 225 37 l203 23 -7 207 -7 206 56 7
c31 4 59 6 61 4 2 -2 10 -47 19 -99 11 -69 14 -78 11 -35 -3 33 -5 121 -6 195
l-1 135 56 5 c31 3 56 3 57 0 0 -3 9 -63 19 -135 l18 -130 -1 135 0 135 56 3
c31 2 57 -1 58 -5 0 -4 9 -66 19 -138 l19 -130 -4 143 -4 142 59 0 59 0 6 -42
c3 -24 12 -88 20 -143 l14 -100 -2 145 -2 145 58 3 c31 2 57 -1 58 -5 0 -4 9
-71 19 -148 l19 -140 -2 150 -2 150 58 3 c31 2 57 -1 57 -5 0 -4 11 -96 24
-203 13 -107 27 -237 31 -289 l7 -93 72 6 c195 16 890 46 1081 46 l131 0 86
80 87 80 -34 74 c-18 40 -46 111 -61 157 -25 75 -28 99 -29 219 0 118 3 141
22 180 22 47 349 417 364 413 5 -2 9 3 9 11 0 25 42 46 93 46 44 0 53 -4 90
-43z m1807 -2197 l24 -18 -47 -71 c-26 -39 -47 -74 -47 -79 0 -5 89 -68 198
-142 108 -73 205 -140 214 -148 16 -13 14 -19 -23 -73 -26 -38 -44 -57 -52
-52 -7 4 -103 69 -215 145 -111 76 -206 138 -211 138 -4 0 -29 -31 -55 -70
-25 -38 -48 -70 -51 -70 -3 0 -27 14 -54 32 l-48 32 110 166 c60 91 125 186
144 213 35 47 35 47 62 31 15 -9 38 -24 51 -34z m-3395 -109 c117 -58 202
-181 212 -306 l5 -62 -38 -6 c-22 -4 -51 -7 -66 -7 -26 0 -28 3 -28 43 0 51
-37 132 -76 169 -83 78 -205 75 -288 -8 -84 -85 -73 -224 26 -309 23 -19 56
-39 74 -45 19 -7 34 -14 34 -17 0 -3 -14 -29 -30 -59 -30 -51 -31 -52 -61 -42
-88 31 -182 127 -220 228 -110 284 184 555 456 421z m3218 -554 l211 -219 -51
-49 c-28 -27 -55 -49 -60 -48 -4 1 -108 105 -230 233 l-222 231 52 52 c49 51
52 52 70 35 11 -9 114 -115 230 -235z m-2770 103 c96 -72 140 -111 157 -142
79 -139 -54 -336 -212 -315 -35 5 -40 3 -49 -20 -27 -70 5 -143 63 -143 31 0
31 -3 22 -74 -7 -45 -7 -46 -43 -46 -71 1 -156 59 -180 123 -17 45 -13 121 10
183 l22 58 -27 23 c-15 13 -30 23 -34 23 -4 0 -32 -34 -62 -76 -30 -41 -60
-82 -67 -90 -10 -14 -19 -10 -68 27 -31 23 -54 48 -51 55 6 16 376 514 382
514 2 0 64 -45 137 -100z m2403 -66 c16 -27 23 -49 17 -52 -5 -4 -59 -38 -119
-76 -60 -38 -110 -69 -111 -70 -1 -1 17 -31 39 -67 l41 -66 104 65 c115 72
109 72 151 2 l21 -36 -96 -59 c-52 -33 -100 -63 -106 -66 -6 -4 18 -53 58
-118 37 -61 66 -113 64 -115 -13 -12 -108 -66 -116 -66 -11 0 -344 530 -342
545 1 13 351 233 361 228 4 -2 20 -24 34 -49z m-1719 -284 c133 -66 205 -207
181 -357 -17 -111 -87 -200 -197 -252 -80 -37 -192 -37 -272 0 -295 138 -262
547 50 636 70 20 164 9 238 -27z m1200 5 c28 -14 58 -33 66 -43 16 -17 13 -21
-33 -67 l-50 -49 -24 23 c-49 46 -146 20 -146 -39 0 -42 30 -57 130 -65 120
-9 156 -21 199 -64 94 -94 68 -236 -57 -304 -99 -54 -216 -55 -292 -2 -31 22
-78 82 -68 89 1 2 28 17 58 34 l55 31 33 -30 c38 -34 80 -38 131 -11 43 21 56
42 47 75 -8 32 -53 47 -141 47 -113 0 -185 36 -222 110 -29 55 -29 111 -2 167
24 50 63 81 134 105 71 24 122 22 182 -7z m-551 -90 c46 -24 104 -85 104 -110
0 -6 -25 -23 -56 -38 l-55 -27 -33 35 c-26 27 -41 35 -67 35 -69 0 -103 -57
-59 -98 11 -10 46 -26 77 -36 130 -41 193 -90 214 -168 13 -48 -1 -115 -32
-159 -47 -67 -184 -100 -291 -70 -77 22 -158 106 -158 164 0 9 21 19 59 27
l60 12 39 -41 c34 -35 45 -41 81 -41 86 0 129 52 82 99 -10 10 -55 31 -99 45
-128 43 -181 90 -197 177 -15 82 48 185 128 208 65 19 150 13 203 -14z"/>
<path d="M2230 5429 c0 -7 9 -45 19 -83 11 -39 25 -90 31 -113 l10 -42 63 41
c34 22 66 44 70 48 4 3 -38 41 -93 84 -55 42 -100 71 -100 65z"/>
<path d="M5300 4894 c-36 -24 -66 -48 -68 -53 -1 -4 18 -36 43 -69 38 -53 50
-62 76 -62 63 0 120 59 102 107 -10 24 -76 122 -83 123 -3 0 -34 -21 -70 -46z"/>
<path d="M3251 4734 c0 -11 3 -14 6 -6 3 7 2 16 -1 19 -3 4 -6 -2 -5 -13z"/>
<path d="M3277 4603 c-28 -4 -29 -5 -22 -56 11 -84 41 -206 76 -301 39 -107
41 -106 93 58 41 127 69 276 56 290 -10 10 -158 17 -203 9z"/>
<path d="M3107 3209 c-136 -137 -169 -175 -195 -229 -50 -106 -50 -107 0 -121
99 -26 225 9 336 94 78 61 213 188 210 198 -2 6 -127 156 -174 208 -10 11 -41
-15 -177 -150z"/>
<path d="M2178 1925 c-27 -35 -48 -69 -48 -74 0 -19 113 -91 142 -91 54 0 103
75 80 124 -8 18 -111 107 -123 106 -2 -1 -25 -30 -51 -65z"/>
<path d="M2769 1607 c-111 -59 -141 -213 -61 -309 108 -128 312 -61 338 109
23 155 -139 272 -277 200z"/>
</g>
</svg>
