<?xml version="1.0" encoding="UTF-8" standalone="no"?>
<!-- Generator: Adobe Illustrator 26.0.3, SVG Export Plug-In . SVG Version: 6.00 Build 0)  -->

<svg
   version="1.0"
   id="katman_1"
   x="0px"
   y="0px"
   viewBox="0 0 493.89651 119.5965"
   xml:space="preserve"
   sodipodi:docname="fuckoff.svg"
   width="493.89651"
   height="119.5965"
   inkscape:version="1.3 (0e150ed, 2023-07-21)"
   xmlns:inkscape="http://www.inkscape.org/namespaces/inkscape"
   xmlns:sodipodi="http://sodipodi.sourceforge.net/DTD/sodipodi-0.dtd"
   xmlns="http://www.w3.org/2000/svg"
   xmlns:svg="http://www.w3.org/2000/svg"><defs
   id="defs1" /><sodipodi:namedview
   id="namedview1"
   pagecolor="#ffffff"
   bordercolor="#000000"
   borderopacity="0.25"
   inkscape:showpageshadow="2"
   inkscape:pageopacity="0.0"
   inkscape:pagecheckerboard="0"
   inkscape:deskcolor="#d1d1d1"
   inkscape:zoom="0.52444444"
   inkscape:cx="246.92797"
   inkscape:cy="59.110169"
   inkscape:window-width="1312"
   inkscape:window-height="449"
   inkscape:window-x="0"
   inkscape:window-y="44"
   inkscape:window-maximized="0"
   inkscape:current-layer="katman_1" />&#10;<style
   type="text/css"
   id="style1">&#10;	.st0{fill-rule:evenodd;clip-rule:evenodd;fill:#010202;stroke:#222225;stroke-width:1.4965;}&#10;	.st1{fill-rule:evenodd;clip-rule:evenodd;fill:#55B25B;}&#10;	.st2{fill-rule:evenodd;clip-rule:evenodd;fill:#FFFFFF;}&#10;</style>&#10;<g
   id="spotify-podcast-badge-blk-grn-330x80"
   transform="translate(-52.75175,-165.55175)">&#10;	<g
   id="Group-2">&#10;		<path
   id="Path"
   class="st0"
   d="M 518.1,166.3 H 75.3 c -2,0 -3.9,0.2 -5.9,0.5 -1.9,0.3 -3.8,0.9 -5.5,1.8 -1.7,0.9 -3.3,2.1 -4.7,3.4 -1.4,1.4 -2.5,2.9 -3.4,4.7 -0.9,1.7 -1.5,3.6 -1.8,5.5 -0.3,1.9 -0.5,3.9 -0.5,5.9 0,0.4 0,0.8 0,1.4 v 0.5 c 0,0.4 0,0.6 0,0.9 V 260 c 0,0.3 0,0.4 0,0.9 v 0.4 c 0,0.6 0,1 0,1.4 0,2 0.2,3.9 0.5,5.9 0.3,1.9 0.9,3.8 1.8,5.5 0.9,1.7 2,3.3 3.4,4.6 1.4,1.4 2.9,2.5 4.7,3.4 1.7,0.9 3.6,1.5 5.5,1.8 1.9,0.3 3.9,0.5 5.9,0.5 H 78 521.2 524 c 2,0 3.9,-0.2 5.9,-0.5 1.9,-0.3 3.8,-0.9 5.5,-1.8 1.7,-0.9 3.3,-2 4.7,-3.4 1.4,-1.4 2.5,-2.9 3.4,-4.6 0.9,-1.7 1.5,-3.6 1.8,-5.5 0.3,-1.9 0.5,-3.9 0.6,-5.9 V 260 c 0,-0.2 0,-0.4 0,-0.7 0,-0.7 0,-1.3 0,-2.6 v -62.6 c 0,-1.6 0,-2.3 0,-3.3 v -2.7 c 0,-2 -0.2,-3.9 -0.6,-5.9 -0.3,-1.9 -0.9,-3.8 -1.8,-5.5 -1.8,-3.5 -4.6,-6.3 -8.1,-8.1 -1.7,-0.9 -3.6,-1.5 -5.5,-1.8 -1.9,-0.3 -3.9,-0.5 -5.9,-0.5 z" />&#10;		<path
   id="Combined-Shape"
   class="st1"
   d="m 320.2,221.4 c 1.6,0.8 3.6,0.2 4.4,-1.4 0.8,-1.5 0.3,-3.3 -1.1,-4.3 -13,-7.7 -33.5,-8.5 -45.9,-4.7 -1.7,0.6 -2.6,2.5 -2,4.2 0.6,1.6 2.2,2.5 3.9,2.1 10.8,-3.2 29.4,-2.6 40.7,4.1 z m -0.4,10 c 0.8,-1.3 0.4,-3 -0.9,-3.8 -10.8,-6.7 -26.6,-8.5 -39.3,-4.7 -1.4,0.5 -2.2,2.1 -1.6,3.5 0.5,1.3 1.9,2.1 3.2,1.7 11.1,-3.4 25.4,-1.7 34.9,4.1 1.2,0.9 2.9,0.5 3.7,-0.8 z m -4.3,9.6 c 0.6,-1 0.3,-2.4 -0.7,-3 -9.2,-5.7 -20.7,-7 -34,-3.9 -1.2,0.4 -1.8,1.6 -1.5,2.7 0.3,1.1 1.4,1.7 2.4,1.5 12.2,-2.8 22.4,-1.7 30.7,3.4 1.2,0.6 2.5,0.3 3.1,-0.7 z m -16,-50.8 c 19.4,-0.1 35.3,15.6 35.4,35 0.1,19.4 -15.6,35.3 -35,35.4 -19.4,0.1 -35.3,-15.6 -35.4,-35 0,-0.1 0,-0.1 0,-0.2 0,-19.3 15.6,-35.1 35,-35.2 z m 60.2,32.5 c 7.4,1.8 10.4,4.6 10.4,9.7 0,6 -4.5,9.8 -11.6,9.8 -4.9,0 -9.7,-1.8 -13.3,-5.1 -0.2,-0.2 -0.2,-0.4 0,-0.6 0,0 0,0 0,0 l 3.3,-4 c 0.1,-0.1 0.2,-0.1 0.3,-0.1 0.1,0 0.2,0 0.3,0.1 2.6,2.5 6,4 9.6,4 3.2,0 5.1,-1.4 5.1,-3.6 0,-2.2 -1,-3.1 -6.7,-4.5 -6.8,-1.7 -10.7,-3.8 -10.7,-9.8 0,-5.6 4.5,-9.6 11.1,-9.6 4.2,-0.1 8.3,1.4 11.6,4 0.2,0.1 0.2,0.4 0.1,0.5 l -3,4.2 c -0.1,0.1 -0.2,0.1 -0.3,0.2 -0.1,0 -0.2,0 -0.3,0 -2.3,-1.9 -5.2,-3 -8.2,-3.1 -2.8,0 -4.7,1.3 -4.7,3.4 0,2.1 0.9,3.1 7,4.5 z m 31.3,6.8 c 0,-4.2 -2.7,-7.2 -6.3,-7.2 -3.7,0 -6.5,3.1 -6.5,7.2 0,4.1 2.8,7.2 6.5,7.2 3.7,0 6.3,-2.9 6.3,-7.2 z m -5.1,-12.8 c 5.7,0 11.4,4.4 11.4,12.8 0,8.4 -5.7,12.8 -11.4,12.8 -2.9,0.1 -5.7,-1.2 -7.6,-3.5 v 9.8 c 0,0.2 -0.2,0.4 -0.4,0.4 h -5.4 c -0.2,0 -0.4,-0.2 -0.4,-0.4 v -30.9 c 0,-0.2 0.2,-0.4 0.4,-0.4 0,0 0,0 0,0 h 5.4 c 0.2,0 0.4,0.2 0.4,0.4 0,0 0,0 0,0 v 2.8 c 1.8,-2.5 4.6,-3.8 7.6,-3.8 z m 26,20.1 c 3.7,0 6.8,-3 6.8,-6.7 0,-0.1 0,-0.3 0,-0.4 0.2,-3.8 -2.7,-7.1 -6.5,-7.3 -0.1,0 -0.2,0 -0.3,0 -3.7,0 -6.7,3 -6.7,6.7 0,0.2 0,0.3 0,0.5 -0.2,3.8 2.7,7.1 6.5,7.3 0.1,-0.1 0.2,-0.1 0.2,-0.1 z m 0,-20.1 c 7.1,0.1 12.7,5.9 12.6,13 -0.1,7.1 -5.9,12.7 -13,12.6 -6.9,-0.1 -12.5,-5.8 -12.6,-12.7 -0.1,-7 5.6,-12.8 12.6,-12.9 0.2,0 0.3,0 0.4,0 z m 28.6,0.5 c 0.2,0 0.4,0.2 0.4,0.4 0,0 0,0 0,0 v 4.7 c 0,0.2 -0.2,0.4 -0.4,0.4 0,0 0,0 0,0 h -6 v 11.2 c 0,1.8 0.8,2.6 2.5,2.6 1.1,0 2.2,-0.3 3.2,-0.8 0.2,-0.1 0.4,0 0.5,0.2 0,0.1 0,0.1 0,0.2 v 4.5 c 0,0.1 -0.1,0.3 -0.2,0.3 -1.5,0.9 -3.3,1.3 -5.1,1.3 -4.8,0 -7.2,-2.5 -7.2,-7.4 v -12.1 h -2.6 c -0.2,0 -0.4,-0.2 -0.4,-0.4 v -4.7 c 0,-0.2 0.2,-0.4 0.4,-0.4 h 2.7 v -6.1 c 0,-0.2 0.2,-0.4 0.4,-0.4 v 0 h 5.4 c 0.2,0 0.4,0.2 0.4,0.4 0,0 0,0 0,0 v 6.1 z m 20.7,0 h 9.2 c 0.2,0 0.3,0.1 0.4,0.3 l 6.3,16.6 5.8,-16.6 c 0.1,-0.2 0.2,-0.3 0.4,-0.3 h 5.6 c 0.1,0 0.2,0.1 0.3,0.2 0.1,0.1 0.1,0.2 0,0.4 l -9.4,24.4 c -1.9,5 -4.1,6.9 -8.1,6.9 -2,0 -4,-0.5 -5.8,-1.5 -0.2,-0.1 -0.3,-0.3 -0.2,-0.5 l 1.8,-4.1 c 0,-0.1 0.1,-0.2 0.2,-0.2 0.1,0 0.2,0 0.3,0 0.9,0.5 1.9,0.8 3,0.9 1.2,0 2.1,-0.4 2.9,-2.3 l -7.7,-18.6 h -5 v 18.7 c 0,0.2 -0.2,0.4 -0.4,0.4 h -5.4 c -0.2,0 -0.4,-0.2 -0.4,-0.4 v -18.6 h -2.6 c -0.2,0 -0.4,-0.2 -0.4,-0.4 v -4.7 c 0,-0.2 0.2,-0.4 0.4,-0.4 H 455 V 216 c 0,-5.3 2.6,-8.2 7.6,-8.2 1.5,0 3,0.2 4.5,0.6 0.2,0.1 0.3,0.2 0.3,0.4 v 4.5 c 0,0.1 -0.1,0.2 -0.2,0.3 -0.1,0.1 -0.2,0.1 -0.4,0 -1,-0.4 -2,-0.6 -3,-0.6 -1.9,0 -2.7,1 -2.7,3.2 z m -12,0 c 0.2,0 0.4,0.2 0.4,0.4 0,0 0,0 0,0 v 23.7 c 0,0.2 -0.2,0.4 -0.4,0.4 h -5.4 c -0.2,0 -0.4,-0.2 -0.4,-0.4 v -23.7 c 0,-0.2 0.2,-0.4 0.4,-0.4 0,0 0,0 0,0 z m -2.7,-10.8 c 2.2,0 3.9,1.7 3.9,3.9 0,2.2 -1.7,3.9 -3.9,3.9 -2.2,0 -3.9,-1.7 -3.9,-3.9 0,0 0,0 0,0 0,-2.1 1.8,-3.9 3.9,-3.9 z m 47.6,13.2 h -1 v 1.3 h 1 c 0.5,0 0.8,-0.2 0.8,-0.6 0,-0.4 -0.3,-0.7 -0.8,-0.7 z m 0.7,1.8 1.1,1.5 H 495 l -1,-1.4 h -0.8 v 1.4 h -0.8 v -4 h 1.9 c 0.9,0 1.5,0.5 1.5,1.3 -0.1,0.6 -0.5,1.1 -1,1.2 z m -0.9,-3.8 c -1.9,0 -3.5,1.5 -3.5,3.4 0,1.9 1.5,3.5 3.4,3.5 1.9,0 3.5,-1.5 3.5,-3.4 0,0 0,0 0,-0.1 0.1,-1.9 -1.4,-3.4 -3.4,-3.4 0.1,0 0.1,0 0,0 z m 0,7.2 c -2.1,0 -3.9,-1.7 -3.9,-3.8 0,-2.1 1.7,-3.9 3.8,-3.9 2.1,0 3.9,1.7 3.9,3.8 0,0 0,0 0,0 0.1,2.2 -1.6,3.9 -3.8,3.9 0.1,0 0,0 0,0 z" />&#10;		<path
   id="LISTEN-ON"
   class="st2"
   d="M 111.5,234.1 H 99.9 v -18 h 3.5 v 14.7 h 8 z m 8.3,0 h -3.6 v -18 h 3.6 z m 18.7,-13.7 -3.2,1 c -0.3,-1.6 -1.7,-2.7 -3.3,-2.5 -1.4,-0.1 -2.7,0.9 -2.8,2.3 0,0 0,0 0,0 0,1 0.6,1.8 2,2 l 2.5,0.5 c 3.3,0.6 5,2.8 5,5.3 0,2.5 -2.3,5.6 -6.5,5.6 -4.8,0 -6.9,-3.1 -7.2,-5.6 l 3.3,-0.9 c 0.1,2 1.8,3.5 3.8,3.4 0.1,0 0.1,0 0.2,0 1.9,0 3,-0.9 3,-2.2 0,-1 -0.8,-1.9 -2.2,-2.1 l -2.5,-0.5 c -2.7,-0.3 -4.7,-2.5 -4.7,-5.2 0.2,-3.3 3,-5.8 6.3,-5.7 0,0 0,0 0,0 4.2,-0.1 5.9,2.5 6.3,4.6 z m 19,-1 h -5.7 v 14.7 h -3.5 v -14.7 h -5.7 V 216 h 15 v 3.4 z m 16.1,14.7 H 162.3 V 216 h 11.3 v 3.4 h -7.8 v 4.1 h 7 v 3.1 h -7 v 4.1 h 7.8 z m 21.1,0 H 191 l -8.2,-12.8 v 12.8 h -3.5 v -18 h 4.4 l 7.5,12 v -12 h 3.5 z m 17,-8.9 c -0.2,3.1 2.2,5.8 5.3,5.9 3.1,0.2 5.8,-2.2 5.9,-5.3 0,-0.2 0,-0.4 0,-0.6 0.2,-3.1 -2.2,-5.8 -5.3,-5.9 -3.1,-0.2 -5.8,2.2 -5.9,5.3 0,0.2 0,0.4 0,0.6 z m -3.6,0 c -0.2,-5.1 3.8,-9.4 8.9,-9.6 5.1,-0.2 9.4,3.8 9.6,8.9 0,0.2 0,0.5 0,0.7 0.2,5.1 -3.8,9.4 -8.9,9.6 -5.1,0.2 -9.4,-3.8 -9.6,-8.9 0,-0.2 0,-0.5 0,-0.7 z m 39.4,8.9 h -3.7 l -8.2,-12.8 v 12.8 h -3.5 V 216 h 4.4 l 7.5,12 v -12 h 3.5 z" />&#10;	</g>&#10;</g>&#10;</svg>
